PathFileType	4	(X/Y/Z)	1_1_7_p0_0-196.trc
DataRate	CameraRate	NumFrames	NumMarkers	Units	OrigDataRate	OrigDataStartFrame	OrigNumFrames
60.0	60.0	6	27	m	60.0	24	197
Frame#	Time	RHip			RKnee			RAnkle			RBigToe			RSmallToe			RHeel			LHip			LKnee			LAnkle			LBigToe			LSmallToe			LHeel			Neck			Head			Nose			RShoulder			RElbow			RWrist			RThumb			RIndex			RPinky			LShoulder			LElbow			LWrist			LThumb			LIndex			LPinky			
		X1	Y1	Z1	X2	Y2	Z2	X3	Y3	Z3	X4	Y4	Z4	X5	Y5	Z5	X6	Y6	Z6	X7	Y7	Z7	X8	Y8	Z8	X9	Y9	Z9	X10	Y10	Z10	X11	Y11	Z11	X12	Y12	Z12	X13	Y13	Z13	X14	Y14	Z14	X15	Y15	Z15	X16	Y16	Z16	X17	Y17	Z17	X18	Y18	Z18	X19	Y19	Z19	X20	Y20	Z20	X21	Y21	Z21	X22	Y22	Z22	X23	Y23	Z23	X24	Y24	Z24	X25	Y25	Z25	X26	Y26	Z26	X27	Y27	Z27	
24	0.4	0.3757348487245451	0.17184226999368404	1.1064550759287914	0.38453760430320355	0.2749038264992023	1.5617743996766464	0.3930241018923158	0.340524651995673	1.958488556827573	0.3481995719128551	0.18127458291481877	2.0164438434760723	0.4256378418199784	0.18995571747146398	2.0133686554230787	0.37303173773035714	0.43232548405141347	2.0388849962315354	0.14767979019809077	0.15191176978026757	1.1127114462781729	0.1616910896293986	0.24833244382047762	1.5571803071475103	0.19346298556515001	0.37171153526279305	1.9725159633457532	0.18565842702131782	0.1397767380289063	1.996323248078924	0.12828208830602222	0.22219657741506982	1.996145111882093	0.2157826974674084	0.4406887545171117	2.0439802115333783	0.2660507548901897	0.11256895816613453	0.4132017816758874	0.26264479387341905	0.06702349917754706	0.15604525119965257	0.26323600186192575	-0.001542814653924278	0.2938999125370592	0.44104291973137033	0.12362099572200118	0.5339305397292176	0.47952051110658467	0.06508497077843946	0.8364072641261777	0.33254055833168034	0.03201854140851784	1.0475317863017481	0.2519639994050145	0.054189133258871376	1.1211165930544353	0.2321188718428451	0.05461805664621006	1.1366954331113959	0.2435069268611701	0.0425325597462919	1.1277058927821169	0.0652894115433177	0.1259183636106861	0.5473868104500479	0.05119353792274257	0.07832670488501418	0.8198079583926191	0.18484415958882297	0.006564987311254086	1.0262671871751337	0.28863383655865615	0.0019394465379792116	1.0628670996401635	0.30241272278176645	0.011750188045041143	1.1145624191326138	0.2474101044779849	0.07858683970018242	1.1462622806812137
25	0.4166666666666667	0.3762175405738838	0.17535404695705295	1.1074062874000354	0.38457651768128664	0.27494787328504905	1.5617477528008639	0.3929601183314799	0.34024084147350403	1.958811046340161	0.34818246921107354	0.18124408956225257	2.016392216665869	0.4245347644405094	0.1879241880992681	2.008464075786532	0.3682635101441676	0.42966431900195023	2.0379976677738445	0.14811736841975584	0.15066585687215225	1.1164343003267052	0.16167292458712998	0.24810412995464246	1.557025876953476	0.19344630977594027	0.37171836174684914	1.9725111822583938	0.18870568875179314	0.15165547389922127	2.0025260951999426	0.13238519634507961	0.2252273265874571	1.9976622110543192	0.21582541726923932	0.4409271258899521	2.044701943968902	0.26603215534324226	0.11261462555333634	0.4132079204653604	0.26267336117534124	0.06706483005415682	0.15604943529215687	0.26322084713888405	-0.001640959152577559	0.29390275370738417	0.44106378839313193	0.12363776322473569	0.5339408591465331	0.47954068783455084	0.06509734993035514	0.8363746064895938	0.33253011063649385	0.03186128411155784	1.0473921709677119	0.251439169297601	0.05501445120258062	1.117205076956047	0.23626025519926674	0.043120058410045514	1.132623749497389	0.24742999915840944	0.0305507560143653	1.1237473062497443	0.06529546917239316	0.12581922906382112	0.5473683875966348	0.05362898572223219	0.08849191236244475	0.8210875396493407	0.1847915407272391	0.006621501563664499	1.0262758718515748	0.2881166527008997	0.003534791353197829	1.059472579839007	0.30239836974943396	0.011249843114995776	1.1142099984508627	0.25145617245756735	0.06702836990450975	1.142550696919396
26	0.43333333333333335	0.3791535175768247	0.16050751548154713	1.0994622997620018	0.38449459423126964	0.2745905758590399	1.5618486068739243	0.3930115253617354	0.34022551077576707	1.958881093733207	0.348161670449257	0.18104526810273766	2.016328033525513	0.42443833219209226	0.1877836554387263	2.0083488258563755	0.3730158416621753	0.43192997514323633	2.0386962866347336	0.14765362643605642	0.14853949783987094	1.112319484838471	0.16069692570956814	0.2457786569634494	1.5519049368703421	0.1933734468712747	0.37165271787372056	1.9723246103590009	0.18911763098866086	0.1524047720509909	1.9990385646255264	0.12831488941062677	0.22231873246178527	1.996178887629579	0.21098664133017997	0.4367079527866294	2.043007017256772	0.26596720849991123	0.1106235211236337	0.4130597245076744	0.2627114188894701	0.06702158205748567	0.15603948168194912	0.26324187578073205	-0.0016295868039017268	0.2938771267585258	0.4410657351082791	0.12360218166351851	0.5339239591809049	0.47952426941201665	0.06503708219356445	0.8363227470509811	0.3325642405249083	0.03176999001214806	1.0474406801286111	0.2557360103332512	0.042888106361332584	1.1133265606238991	0.2359723836631769	0.04443129636274799	1.1297428778396141	0.2472437003525468	0.030639331511340955	1.12389928060685	0.06138882552741773	0.1240297105708342	0.5474800502538484	0.05364345317051657	0.08847621415527587	0.821082423124863	0.18422461945006657	0.00506135159342843	1.022179016749521	0.28810241959414346	0.0034095276123410918	1.0594869539011578	0.3026819518174299	0.010902911496423145	1.1139321127475537	0.2516269590773825	0.06631281211555469	1.1422057062139086
27	0.45	0.3792948603643527	0.16048045149017406	1.099321724267209	0.3844250615215564	0.27332279345999577	1.5653380082976165	0.39289668277433704	0.340370577803346	1.958530436260359	0.3480347831903404	0.18121325979983835	2.016187787618332	0.4208007711714037	0.2025963821126051	2.0171365033185187	0.368250854244513	0.4301280897425038	2.0376332314498016	0.14725840861646744	0.14656081891163789	1.1082600451497426	0.1598948229414263	0.24396985767029353	1.547236086746987	0.18973147789205294	0.3585188643472146	1.9663629419594977	0.18884796517516494	0.15155826630750036	2.002332196969688	0.13249104701294326	0.22468689759149615	1.997601595473276	0.21568006398690343	0.4407527651330939	2.0441537406157413	0.26622958072351727	0.1119176265926864	0.41661373504818117	0.2626732010616463	0.06713548842380566	0.15603171582431472	0.26323645130288575	-0.0015789665449397207	0.2938614832390911	0.44107165743581844	0.12362739452284142	0.5339443056209494	0.47930057296408346	0.0664294396242459	0.8331197111100557	0.332573750445534	0.032009275357802326	1.0475077549808307	0.2518094300802199	0.040905105876979986	1.107827496461956	0.23131653193178464	0.05424862024207164	1.1289088793898472	0.24330664129579133	0.04256739301943307	1.1276687210431973	0.06529963276514689	0.12578867913947286	0.5473918808941183	0.05122645283311537	0.07838346935993074	0.8199252382248482	0.18453806200223266	0.003612077239789881	1.0252193808533125	0.2917771410955883	-0.0072908416720895925	1.0565460523416192	0.30283496651743913	0.011282057092818371	1.1142709412876135	0.2516224895002727	0.06656176824542838	1.142442295510369
28	0.4666666666666667	0.3799196224836978	0.16258669216189536	1.1036108480125641	0.38833418976353595	0.26039419575236356	1.555586950315159	0.39295101332534654	0.3404128762850593	1.9587062509747977	0.34799003174057097	0.18119611327386814	2.0160743677738053	0.4207954463259779	0.20260978346872166	2.0171499289064285	0.3732447108719593	0.4336713043940215	2.0347613567702214	0.14825134945191648	0.1504770621383448	1.1164182323185496	0.15982485056864656	0.24365967694867785	1.547198988117058	0.18983574334459755	0.3603171071576043	1.9622946281938323	0.1887036710218351	0.15164432543784834	2.002531270736471	0.12881291120192165	0.2200584740983491	1.999646259593708	0.21086817383902412	0.436838699434601	2.042509241159508	0.2662169162875305	0.11193978511301657	0.41661517045691426	0.26268278549720864	0.06719271321017602	0.15602720678910595	0.2632030819943982	-0.0016113864610641992	0.2938557725518229	0.4410848996255539	0.12359558007136959	0.5339475962506767	0.47995195966705095	0.067662008328106	0.8365036112873395	0.3326051191820363	0.031804682071189354	1.047492582858337	0.2511959423355177	0.0539235657054387	1.1208667788053606	0.23201349754275247	0.05458472899938809	1.1366379218160485	0.2473666234122477	0.030954023770091356	1.1240520095090185	0.06525817872064764	0.12583636317338137	0.5474118041040587	0.05359369224261855	0.08828918247764538	0.8210249250954611	0.18510181845713314	0.005269658469211897	1.0293310521942665	0.29284004847832823	0.00580779370308721	1.0604579728625358	0.30303389827191357	0.011439339870876575	1.1142235377321674	0.2514956822492357	0.06658844742735137	1.1424572911430049
29	0.48333333333333334	0.38030064164108734	0.16080028170915797	1.1072924420108485	0.3844891770778311	0.2745044614250616	1.5617239037014994	0.39294088484735545	0.3401624621010858	1.9587431106671322	0.3445877485974733	0.16954497995723558	2.0105735579643143	0.41736862706642697	0.19162190697023349	2.0118144381271104	0.3733493371602608	0.43282038013651164	2.035063001570284	0.14820856167318364	0.15023419478862154	1.1165873046484969	0.1603573840205266	0.24197685392906962	1.5507238534038268	0.189915718861366	0.36041926152423204	1.9623064314072993	0.18905536845173518	0.1523095610250138	1.999233277005883	0.12886946748755915	0.21999052561044227	1.9996329753990096	0.21087760779193052	0.436825380634361	2.042620044718277	0.2662230402675632	0.11189158803746649	0.41656709289486044	0.26268052046399637	0.06708804622292144	0.15596827293043344	0.2631943847222841	-0.0017619789535565685	0.29381650037317053	0.4410375380930115	0.12359818821312205	0.5339464649683234	0.4830192265906613	0.07600158147442117	0.8341237626944599	0.3326293019265182	0.031868834115271485	1.0474516128312474	0.2509410887776461	0.05505159132381368	1.1172487474538313	0.23139235315054762	0.05279628354662412	1.1321689217867132	0.247359028934561	0.030893412428284545	1.123922408849218	0.06140121725812986	0.12396125822463779	0.5474876202213512	0.05114499773792444	0.07843201874166468	0.8198716222176207	0.18484057943918655	0.0066188820643997915	1.0263097181504643	0.2936105312588721	0.007972178206601403	1.0642553383507443	0.3031738745807128	0.011789898797514744	1.1143661097543516	0.25163699239280973	0.06688143350379759	1.1425474356581868
